<svg width="11" height="11" viewBox="0 0 11 11" fill="none" xmlns="http://www.w3.org/2000/svg">
<path d="M6.03125 0.21747L10.7781 4.92372C10.8485 4.99345 10.9044 5.07644 10.9425 5.1679C10.9807 5.25935 11.0003 5.35745 11.0003 5.45653C11.0003 5.55562 10.9807 5.65372 10.9425 5.74517C10.9044 5.83662 10.8485 5.91961 10.7781 5.98935L6.02813 10.7018C5.8868 10.8411 5.69619 10.9189 5.4978 10.9183C5.2994 10.9177 5.10926 10.8388 4.96875 10.6987L4.28438 10.0143C4.21298 9.94249 4.15683 9.85696 4.1193 9.76288C4.08177 9.66879 4.06363 9.5681 4.06596 9.46683C4.0683 9.36557 4.09106 9.26582 4.13289 9.17356C4.17472 9.08131 4.23475 8.99846 4.30938 8.92997L6.73438 6.7081H0.750002C0.651442 6.70834 0.553803 6.68911 0.462697 6.65151C0.371592 6.61391 0.288814 6.55867 0.219121 6.48898C0.149428 6.41928 0.0941925 6.33651 0.0565891 6.2454C0.0189857 6.15429 -0.000244975 6.05666 2.35573e-06 5.9581V4.9581C-0.000244975 4.85953 0.0189857 4.7619 0.0565891 4.67079C0.0941925 4.57968 0.149428 4.49691 0.219121 4.42721C0.288814 4.35752 0.371592 4.30229 0.462697 4.26468C0.553803 4.22708 0.651442 4.20785 0.750002 4.2081H6.73438L4.30938 1.98622C4.23516 1.91772 4.17555 1.83494 4.1341 1.74284C4.09266 1.65075 4.07025 1.55123 4.0682 1.45025C4.06616 1.34928 4.08453 1.24894 4.12222 1.15524C4.1599 1.06154 4.21612 0.976413 4.2875 0.90497L4.97188 0.220595C5.11206 0.0799201 5.30232 0.000589102 5.50092 3.26769e-06C5.69952 -0.000582567 5.89024 0.0776247 6.03125 0.21747Z" fill="#213F7D"/>
</svg>
